HIERARCHY
ROOT Hips
{
   OFFSET 0.00000 0.00000 0.00000
   CHANNELS 6 Xposition Yposition Zposition Zrotation Xrotation Yrotation
   JOINT RightUpLeg
   {
      OFFSET -9.840380 -9.533777 0.111817
      CHANNELS 3 Zrotation Xrotation Yrotation
      JOINT RightLeg
      {
         OFFSET 0.000000 -48.864969 1.509970
         CHANNELS 3 Zrotation Xrotation Yrotation
         JOINT RightFoot
         {
            OFFSET 0.278904 -46.301641 -1.606649
            CHANNELS 3 Zrotation Xrotation Yrotation
            JOINT RightToes
            {
               OFFSET 0.044000 -4.856599 9.349010
               CHANNELS 3 Zrotation Xrotation Yrotation
               End Site
               {
                  OFFSET -0.088000 -0.151193 10.757769
               }
            }
         }
      }
   }
   JOINT Spine
   {
      OFFSET 0.000000 13.079551 0.000000
      CHANNELS 3 Zrotation Xrotation Yrotation
      JOINT Spine1
      {
         OFFSET 0.000000 28.223142 0.140429
         CHANNELS 3 Zrotation Xrotation Yrotation
         JOINT HEad
         {
            OFFSET 0.000000 9.607577 0.012475
            CHANNELS 3 Zrotation Xrotation Yrotation
            End Site
            {
               OFFSET -0.319000 14.051621 2.765345
            }
         }
         JOINT LeftShoulder1
         {
            OFFSET 9.889000 -0.398477 -0.242000
            CHANNELS 3 Zrotation Xrotation Yrotation
            JOINT LeftArm
            {
               OFFSET 11.310971 -0.003718 0.354335
               CHANNELS 3 Zrotation Xrotation Yrotation
               JOINT LeftForeArm
               {
                  OFFSET 36.043591 0.109058 -1.566774
                  CHANNELS 3 Zrotation Xrotation Yrotation
                  JOINT LeftHand
                  {
                     OFFSET 30.320732 0.093898 1.124376
                     CHANNELS 3 Zrotation Xrotation Yrotation
                     End Site
                     {
                        OFFSET 18.418731 -0.660000 1.653201
                     }
                  }
               }
            }
         }
         JOINT RightShoulder
         {
            OFFSET -9.889000 -0.398477 -0.242000
            CHANNELS 3 Zrotation Xrotation Yrotation
            JOINT RightArm
            {
               OFFSET -11.310971 -0.003718 0.354335
               CHANNELS 3 Zrotation Xrotation Yrotation
               JOINT RightForeArm
               {
                  OFFSET -36.186809 0.109058 -1.566774
                  CHANNELS 3 Zrotation Xrotation Yrotation
                  JOINT RightHand
                  {
                     OFFSET -30.241313 0.093898 1.124376
                     CHANNELS 3 Zrotation Xrotation Yrotation
                     End Site
                     {
                        OFFSET -18.294322 -0.660000 1.653201
                     }
                  }
               }
            }
         }
      }
   }
   JOINT LeftUpLeg
   {
      OFFSET 9.840380 -9.533777 0.111817
      CHANNELS 3 Zrotation Xrotation Yrotation
      JOINT LeftLeg
      {
         OFFSET 0.000000 -48.864969 1.509970
         CHANNELS 3 Zrotation Xrotation Yrotation
         JOINT LeftFoot
         {
            OFFSET -0.278904 -46.301641 -1.606649
            CHANNELS 3 Zrotation Xrotation Yrotation
            JOINT LeftToes
            {
               OFFSET -0.044000 -4.856599 9.349010
               CHANNELS 3 Zrotation Xrotation Yrotation
               End Site
               {
                  OFFSET 0.088000 -0.052193 10.757769
               }
            }
         }
      }
   }
}
MOTION
Frames: 18
Frame Time: 0.016667
-953.285508 104.863442 376.162371 17.925353 -19.823722 38.777388 -15.062160 28.981893 -9.273004 17.551025 19.469242 6.686842 -45.902648 4.927681 19.858314 5.790208 -14.851550 -38.966383 -9.979483 42.766844 107.596332 22.472963 -6.179479 -108.245972 -9.636817 41.836575 36.240536 -12.416845 9.764656 -9.754798 -44.437580 -53.366546 -83.183071 -23.864133 -14.503425 -52.376203 -11.695306 8.458473 -72.508448 -14.236253 58.018741 61.785236 273.319117 259.790152 346.302366 58.508473 318.245861 95.561566 16.801195 45.584826 31.289476 17.998156 -1.088951 -16.126577 -30.201160 34.266741 67.064091 -54.330497 12.275394 23.272516 0.168122 -17.439858 -25.772090
-953.740068 104.640931 375.732226 18.036259 -20.978730 38.420453 -15.869378 29.697775 -7.633189 20.008319 18.415892 3.683172 -46.691166 5.539635 20.130142 5.720366 -15.267792 -39.304979 -10.825642 43.685009 107.019085 18.816896 -7.234092 -107.998077 -3.162580 38.258447 31.698724 -13.242537 11.356262 -11.754783 -45.242411 -54.913249 -82.284389 -22.734643 -13.915576 -50.286312 -11.227577 8.031958 -75.052639 -15.131396 55.221991 64.945509 276.904584 260.403667 345.652405 58.374738 320.077909 86.853095 18.263630 47.870648 24.266397 19.540860 -1.034835 -20.441267 -35.016454 31.665023 75.722592 -51.162990 13.610633 23.316565 0.155937 -17.917099 -26.269854
-954.107652 104.246271 375.198359 18.876939 -21.976975 39.834124 -16.115422 30.390473 -6.143940 21.710704 18.280732 0.394249 -46.873157 6.142738 20.190775 5.685473 -15.875520 -39.892106 -11.849353 43.904371 105.588714 15.762349 -8.012509 -108.568521 2.389204 34.619323 27.681814 -13.532983 14.189940 -15.225441 -45.129730 -57.954667 -80.097280 -21.935781 -13.018814 -47.588660 -11.658943 9.305006 -75.250195 -15.599964 55.524315 69.431591 280.156847 261.169823 346.795369 58.810231 322.140026 81.621409 18.734463 49.012246 20.776660 21.026905 0.162279 -23.666278 -37.425817 27.380152 82.095493 -49.289705 13.719424 22.302021 -0.002868 -18.637144 -26.271349
-954.318757 103.706892 374.711832 19.683306 -23.130803 40.647753 -16.815041 30.933503 -4.591712 23.240909 18.793643 -2.070800 -46.534205 6.549753 20.477254 5.656092 -16.577298 -40.434194 -11.253403 45.169168 104.349615 14.580371 -8.184148 -108.849760 6.967593 32.792759 23.955724 -13.054321 15.767830 -17.446151 -44.133995 -59.869238 -77.517033 -22.035780 -13.063940 -46.697389 -10.923011 8.630402 -75.036438 -15.432341 55.689408 72.496202 281.667767 262.099931 347.383394 59.092857 323.233375 79.051995 18.927054 49.298967 19.558443 21.961877 0.765729 -27.067498 -39.615036 25.219625 87.436284 -48.194334 12.962231 21.708633 -0.487844 -19.497868 -25.127469
-954.411607 103.052586 374.326929 20.711167 -23.859927 41.654735 -17.491143 31.638092 -3.464306 24.338435 19.241102 -4.215703 -46.109982 6.623458 20.563353 5.553118 -17.568923 -41.009067 -10.227086 45.831611 103.148096 13.740548 -8.359388 -109.380774 10.563766 31.390245 20.504465 -12.102596 16.899037 -19.125631 -41.566124 -60.987497 -74.077780 -22.506196 -13.670883 -46.520360 -10.722909 8.305189 -74.565209 -15.087832 55.677107 73.868182 281.848248 262.841908 346.977763 59.041118 323.786811 77.328219 18.781210 48.868002 19.527284 22.119633 1.691939 -29.863803 -39.484425 22.715619 88.822444 -47.289419 12.365098 20.729701 -0.767610 -20.025350 -24.431233
-954.346376 102.326821 374.088930 22.136730 -25.271246 42.192541 -18.400398 33.079897 -2.440066 25.119163 19.871056 -5.977000 -45.627679 6.558434 20.671183 5.395741 -18.720304 -41.518135 -9.545600 46.275286 102.776964 13.700253 -8.011861 -109.406059 12.868208 30.193712 17.391837 -10.870330 18.111729 -20.824084 -37.484273 -61.752102 -69.408464 -22.802684 -14.522171 -46.532945 -9.865345 7.104614 -73.717221 -14.720287 56.500435 73.989629 280.785634 263.096674 345.711227 58.706685 324.710226 75.976135 18.456078 47.671841 20.550996 22.112640 1.677836 -33.289946 -41.223713 23.386769 87.853670 -46.023099 12.574616 20.744063 -0.958482 -20.551780 -23.947702
-954.148316 101.532820 373.938173 24.040381 -25.761754 44.675359 -18.909572 34.763716 -2.051599 25.651397 20.137216 -7.804183 -45.311827 6.568321 20.559817 5.250621 -20.065247 -42.085013 -9.681470 46.182485 102.528919 14.173259 -7.931771 -109.584504 13.925075 28.826144 14.603937 -9.215199 18.805201 -22.705267 -31.909828 -62.734434 -64.098211 -22.475608 -15.658216 -46.125955 -9.307366 6.230390 -72.566805 -14.390427 58.386568 73.094915 277.989437 263.042442 343.701567 58.281150 326.291606 75.977433 18.012322 45.741309 23.263180 21.643543 2.783814 -35.043020 -41.180570 22.224208 86.065376 -45.077664 12.172695 19.890665 -0.919602 -21.678945 -24.290758
-953.795457 100.676535 373.897318 26.631725 -24.552536 49.826469 -18.504545 35.965823 -1.950962 25.657659 20.818507 -9.848258 -45.281607 6.051020 19.894302 4.976311 -21.883576 -42.738645 -10.166589 46.872122 101.541595 15.732950 -8.529380 -110.712012 14.123767 27.378339 12.025590 -7.018859 18.872827 -24.706420 -24.638395 -64.460375 -58.760807 -21.757702 -17.032282 -44.750392 -8.191890 4.578438 -70.428847 -14.011085 61.195619 71.688026 272.361088 263.131426 341.195652 57.788940 328.656135 80.981093 17.998990 43.105327 29.866129 20.307015 5.214010 -34.374242 -37.800504 18.237826 83.841610 -44.782190 11.413805 18.330049 -0.960037 -22.860353 -24.624476
-953.365235 99.702424 373.924021 26.637792 -23.634218 51.456746 -18.587084 36.267929 -2.783997 26.730562 19.980912 -11.452236 -45.049851 5.627121 19.510736 4.656015 -23.666913 -43.259304 -9.791559 47.991351 100.246659 15.614769 -9.860758 -112.427366 13.501192 25.834610 11.018226 -5.209076 20.575385 -27.274648 -9.506458 -65.557713 -45.595840 -10.273463 -19.839978 -47.368287 -7.052364 2.749513 -67.133806 -13.403375 60.681190 70.135927 266.567776 263.083778 337.646823 56.786702 330.176809 80.119499 17.690455 41.064559 31.539054 18.166066 7.299866 -35.540565 -32.710981 16.404111 80.996222 -44.316562 9.959701 16.232993 -0.832127 -24.470691 -25.659223
-952.890153 98.738268 373.904261 27.229715 -23.306397 52.747580 -19.709525 38.302407 -3.619702 28.139693 17.888843 -12.154688 -44.582089 4.774314 19.769206 4.178032 -25.353421 -43.126296 -8.311495 47.926044 99.084106 15.988228 -10.537341 -114.138752 11.748402 25.254655 11.510364 -3.473164 23.458344 -29.395211 2.400896 -66.366086 -34.566679 -4.986120 -22.216882 -46.492032 -5.773116 0.174195 -65.390244 -12.246363 60.080557 68.658284 261.048136 262.927094 333.033002 55.116693 331.157733 79.168122 17.594547 39.227330 32.265219 16.934284 8.434143 -35.849149 -29.533536 15.501200 77.000773 -44.254729 9.109422 14.165005 -0.684585 -25.540575 -26.303132
-952.580857 97.865780 373.749842 27.805251 -22.454387 54.987124 -20.315428 38.940575 -3.425901 28.891092 17.554281 -12.741031 -44.286407 4.255531 19.940688 3.682593 -26.935734 -42.724981 -6.644492 47.677230 97.873742 16.261641 -11.595280 -115.864392 9.358903 25.511687 13.239570 -1.387871 25.879363 -32.185122 12.384403 -66.523420 -26.067934 -3.529842 -24.285014 -45.309474 -4.763670 -2.833040 -65.023988 -11.079078 60.002549 67.481887 255.355747 262.746613 327.979127 53.097436 332.416455 78.208234 17.168350 36.639341 32.593970 16.048057 9.631428 -34.940444 -28.550124 15.702209 72.664306 -44.285010 7.155342 12.610163 -0.690235 -27.137264 -26.165925
-952.233338 97.141074 373.665041 27.862510 -22.114240 56.754753 -20.190171 38.862267 -3.036122 29.699513 18.082615 -13.566222 -44.103805 4.238489 19.791812 3.306221 -28.383891 -42.366868 -4.729412 47.957716 96.743421 16.098614 -12.410475 -117.746055 7.139632 26.015349 14.830965 0.270697 29.077567 -34.213353 20.396480 -67.258683 -18.273695 -4.231697 -25.602298 -44.382381 -3.620330 -6.441417 -65.129638 -10.251328 59.212030 65.873404 248.964739 262.469034 321.751989 50.685403 334.079934 75.906030 16.550527 33.500521 32.811816 15.293999 8.623682 -34.600007 -28.043741 17.597204 69.472682 -44.127096 6.005203 12.110284 -0.982052 -28.212066 -25.434228
-951.872239 96.617573 373.608851 27.555763 -22.739493 58.138031 -19.468993 37.819512 -1.322921 30.611849 19.805397 -13.579397 -44.002418 3.151177 20.029400 2.404014 -30.433383 -41.335676 -1.735189 47.818339 95.290018 16.248441 -14.599821 -119.797488 4.665286 27.279815 16.392995 0.762201 30.391166 -36.191595 26.342535 -67.776630 -12.815510 -4.149028 -27.879203 -43.185042 -2.945903 -9.457084 -64.313587 -8.332036 58.364226 65.376126 241.780965 262.422398 315.218913 47.928698 334.941822 76.001263 16.093539 28.985141 37.594403 14.549169 5.694201 -35.486733 -29.314697 23.135116 67.778733 -43.537449 5.468780 13.041435 -1.596999 -29.019350 -24.064078
-951.666398 96.227101 373.409075 26.383043 -21.472399 60.226443 -18.546247 37.921951 -1.865446 31.165060 16.936485 -13.964286 -43.515596 2.640783 20.286290 2.049434 -31.580923 -40.595164 -0.808704 49.382739 94.677227 15.524887 -15.895256 -121.394100 2.590822 28.965094 17.687731 1.190710 30.975820 -38.122411 32.050383 -67.109477 -9.049893 -4.577065 -29.700115 -43.126364 -2.350741 -12.213814 -65.149589 -8.305450 56.947785 62.055117 233.637877 260.944618 306.136237 44.698667 336.986671 73.742896 15.104489 23.973153 39.602065 13.800217 3.060251 -35.064630 -28.271821 23.600412 65.298610 -43.036769 4.650997 12.676526 -1.867584 -29.221417 -23.431121
-951.671281 96.089896 373.144755 26.562891 -21.411072 61.293291 -18.680018 38.820248 -2.188428 32.427723 15.237544 -14.798681 -42.950787 3.145240 20.280935 2.127597 -31.849725 -40.212889 0.711932 49.349397 94.809986 17.627142 -16.085167 -122.346324 0.311024 31.405418 18.888509 1.184347 32.406553 -36.647530 36.735032 -66.463232 -5.174163 -6.616994 -29.948962 -44.854692 -2.040650 -14.418283 -66.410319 -7.740558 55.621106 58.096011 224.367698 259.569127 296.293278 41.531204 337.074425 74.737002 14.628201 20.503087 38.458350 13.254509 1.771816 -36.007890 -28.334333 25.781642 62.898235 -43.277684 5.381473 12.147462 -2.363508 -28.162545 -22.240798
-951.619249 96.267975 373.038744 26.434050 -22.840176 63.145017 -16.728843 38.034636 -0.832433 33.586560 16.100525 -15.805037 -42.368237 5.158421 20.286131 2.587650 -31.174271 -40.064165 2.187681 50.042020 95.803054 21.981736 -14.307713 -122.814533 -2.480957 35.631758 20.065025 0.801556 33.934716 -36.109697 41.044437 -64.634715 -2.486654 -9.743364 -30.352541 -50.254158 -1.627566 -16.969426 -67.190743 -6.434211 55.527884 55.059446 215.113133 258.433758 286.354370 38.160803 335.522907 75.704867 14.028305 16.596919 39.230336 13.237289 0.185051 -36.352118 -27.585905 28.375208 62.262017 -42.967269 5.959204 13.037858 -3.099307 -26.700021 -20.254130
-951.416764 96.840743 373.102869 27.849048 -24.472184 62.786541 -15.926427 36.095815 3.286927 33.401585 20.871219 -17.013578 -41.884475 7.138775 19.921799 3.027228 -30.438991 -39.979826 5.473227 46.919834 94.666470 23.105871 -15.460640 -125.050641 -3.746026 37.084307 20.731994 1.621222 35.022024 -40.188041 42.936557 -61.982853 -0.147953 -11.417053 -30.743959 -49.508937 -0.833069 -20.436078 -67.376435 -5.701634 55.214491 53.111548 205.704343 256.631954 276.539251 34.870680 333.290227 74.051456 13.124319 12.635119 38.429677 13.162049 0.694049 -36.826789 -29.591716 32.532809 61.817037 -42.582476 6.824922 14.062667 -3.784083 -25.662120 -18.179433
-950.966096 97.290553 373.352389 27.334683 -24.006549 62.062159 -14.984043 34.716482 5.825548 32.215127 21.134537 -18.271277 -41.417393 7.627634 19.290295 3.210626 -29.767119 -39.595689 7.218911 42.662369 94.833762 21.505856 -17.432842 -126.804429 -4.116983 34.935414 21.133683 1.552130 36.886635 -44.414330 44.873892 -61.112318 2.679358 -15.202997 -29.443579 -51.221658 0.304937 -24.441446 -68.955315 -5.224319 54.574393 52.703813 192.126869 253.797590 265.849240 32.203068 330.767920 82.876102 12.881102 9.594061 40.670969 13.094159 0.507679 -35.540363 -29.374776 32.506646 60.644874 -41.860727 7.146026 14.135450 -4.015954 -24.797985 -17.080286
